<?xml version="1.0" encoding="utf-8"?>
<!DOCTYPE svg PUBLIC "-//W3C//DTD SVG 1.1//EN" "http://www.w3.org/Graphics/SVG/1.1/DTD/svg11.dtd">
<svg version="1.1" id="Layer_1" xmlns="http://www.w3.org/2000/svg" xmlns:xlink="http://www.w3.org/1999/xlink" x="0px" y="0px" width="1000" height="1000" viewBox="0 0 500 500"><defs id="SvgjsDefs1074"><linearGradient id="SvgjsLinearGradient1079"><stop id="SvgjsStop1080" stop-color="#7f00ff" offset="0"></stop><stop id="SvgjsStop1081" stop-color="#e100ff" offset="1"></stop></linearGradient><linearGradient id="SvgjsLinearGradient1082"><stop id="SvgjsStop1083" stop-color="#7f00ff" offset="0"></stop><stop id="SvgjsStop1084" stop-color="#e100ff" offset="1"></stop></linearGradient></defs><g id="SvgjsG1075" featurekey="9HLbm9-0" transform="matrix(0.9258034825325012,0,0,0.9258034825325012,55.2596219065434,-4.56288796545512)" fill="url(#SvgjsLinearGradient1079)"><path xmlns="http://www.w3.org/2000/svg" d="M27.353,51.114c0,6.194,2.424,11.828,6.368,16.018c-0.082,0.271-0.14,0.552-0.14,0.85c0,1.622,1.315,2.937,2.937,2.937  c0.471,0,0.91-0.121,1.305-0.318c3.706,2.466,8.149,3.907,12.924,3.907c12.899,0,23.393-10.494,23.393-23.393  c0-9.331-5.467-17.656-13.967-21.4c0.03-0.197,0.061-0.394,0.061-0.6c0-2.222-1.808-4.03-4.03-4.03c-1.759,0-3.242,1.14-3.791,2.714  c-0.553-0.039-1.108-0.077-1.666-0.077C37.847,27.721,27.353,38.215,27.353,51.114z M58.233,29.114c0,1.119-0.911,2.03-2.03,2.03  s-2.03-0.911-2.03-2.03s0.911-2.03,2.03-2.03S58.233,27.995,58.233,29.114z M50.746,72.507c-4.242,0-8.189-1.256-11.519-3.394  c0.145-0.348,0.227-0.73,0.227-1.13c0-1.622-1.315-2.937-2.937-2.937c-0.574,0-1.105,0.171-1.558,0.456  c-3.47-3.804-5.607-8.844-5.607-14.387c0-11.796,9.597-21.393,21.393-21.393c0.502,0,0.999,0.034,1.496,0.069  c0.324,1.9,1.971,3.354,3.961,3.354c1.301,0,2.448-0.63,3.186-1.59c7.761,3.429,12.75,11.036,12.75,19.561  C72.139,62.91,62.543,72.507,50.746,72.507z"></path><path xmlns="http://www.w3.org/2000/svg" d="M38.912,51.114c0,6.525,5.309,11.834,11.834,11.834c6.526,0,11.835-5.309,11.835-11.834c0-6.526-5.309-11.835-11.835-11.835  C44.221,39.279,38.912,44.588,38.912,51.114z M40.912,51.114c0-5.423,4.412-9.835,9.834-9.835s9.835,4.412,9.835,9.835  s-4.412,9.834-9.835,9.834S40.912,56.537,40.912,51.114z"></path><path xmlns="http://www.w3.org/2000/svg" d="M10.521,50.509c0,3.112,2.294,5.692,5.278,6.157c2.683,17.018,17.678,29.832,34.947,29.832  c5.389,0,10.498-1.216,15.075-3.38c0.508,0.421,1.152,0.684,1.863,0.684c1.622,0,2.937-1.315,2.937-2.937  c0-0.158-0.022-0.309-0.046-0.46c9.38-6.37,15.556-17.122,15.556-29.291c0-6.337-1.683-12.286-4.613-17.436  c0.311-0.466,0.494-1.025,0.494-1.627c0-1.622-1.315-2.937-2.937-2.937c-0.205,0-0.404,0.021-0.597,0.061  C71.991,20.993,61.975,15.73,50.746,15.73c-16.918,0-31.505,12.017-34.73,28.589C12.926,44.688,10.521,47.321,10.521,50.509z   M17.827,56.65c2.933-0.508,5.173-3.065,5.173-6.141c0-3-2.13-5.512-4.956-6.105C21.201,28.925,34.886,17.73,50.746,17.73  c10.516,0,19.905,4.892,26.029,12.514c-0.393,0.5-0.638,1.122-0.638,1.807c0,1.622,1.315,2.937,2.937,2.937  c0.285,0,0.555-0.053,0.816-0.129c2.696,4.814,4.24,10.357,4.24,16.256c0,11.419-5.766,21.514-14.537,27.536  c-0.515-0.444-1.176-0.722-1.909-0.722c-1.622,0-2.937,1.315-2.937,2.937c0,0.178,0.022,0.351,0.052,0.52  c-4.275,1.993-9.035,3.113-14.054,3.113C34.553,84.498,20.485,72.556,17.827,56.65z M12.521,50.509c0-2.337,1.902-4.239,4.239-4.239  s4.239,1.901,4.239,4.239s-1.901,4.239-4.239,4.239S12.521,52.846,12.521,50.509z"></path></g><g id="SvgjsG1076" featurekey="KVmnAG-0" transform="matrix(2.2886598110198975,0,0,2.2886598110198975,-2.7463917657031374,92.95464006781334)" fill="url(#SvgjsLinearGradient1082)"></g></svg>